<svg width="1284" height="286" viewBox="0 0 1284 286" fill="none" xmlns="http://www.w3.org/2000/svg">
<path d="M439.933 138.653C451.078 135.258 459.334 130.02 465.155 122.626C470.277 115.848 473.063 107.619 473.102 99.1533C473.102 72.7859 445.866 67.4802 427.846 63.9742L426.405 63.6686L409.903 60.3663C391.154 56.5462 381.372 53.5155 381.372 44.3897C381.372 36.5881 389.328 32.2926 403.782 32.2926C411.146 32.2926 423.671 33.5066 427.726 45.4338H469.981C468.955 40.2997 467.242 35.3237 464.889 30.6372C460.099 22.4059 452.438 16.1902 443.345 13.158C436.487 10.7217 422.993 8.11548 403.962 8.11548C375.062 8.11548 356.279 14.6521 346.523 28.099C342.056 33.742 339.702 40.744 339.862 47.9127C339.862 58.2694 343.223 65.7399 350.45 71.4701C357.385 76.9541 368.093 80.9695 384.15 84.1105L416.204 90.35C426.174 92.3704 431.223 97.2177 431.223 103.568C431.223 108.245 428.84 112.116 424.365 114.773C420.079 117.278 413.966 118.602 406.602 118.602C389.654 118.602 379.829 112.261 376.88 102.523H334.204C336.467 118.11 344.697 129.935 359.923 136.48C370.425 141.022 383.884 143.322 399.907 143.322C416.349 143.39 429.449 141.837 439.933 138.653Z" fill="white"/>
<path d="M490.891 32.2584H529.58V93.2276C529.58 100.978 530.197 107.82 536.49 113.449C543.245 119.527 552.607 119.527 555.221 119.527C557.373 119.527 567.043 119.374 573.49 113.907C580.246 107.965 580.554 99.153 580.554 92.6164V32.2584H619.244V91.6826C619.244 105.367 618.781 119.052 607.73 129.383C598.206 138.203 582.243 143.373 554.579 143.373C540.005 143.373 509.597 143.22 496.54 123.916C490.865 115.427 490.865 105.52 490.865 101.564L490.891 32.2584Z" fill="white"/>
<path d="M651.64 32.2584H683.728L735.466 88.8217V32.2584H773.701V139.587H741.458L690.021 82.1238V139.587H651.64V32.2584Z" fill="white"/>
<path d="M1004.31 100.97C1003.08 107.965 1000.16 117.541 992.026 125.759C978.052 139.74 955.488 143.238 936.602 143.238C916.182 143.238 904.514 139.435 896.37 135.64C885.628 130.623 864.899 117.397 864.899 85.9189C864.899 74.6708 868.431 27.6918 937.828 27.6918C967.31 27.6918 981.739 34.8396 990.8 44.721C996.801 51.1049 1001.4 62.2002 1002.31 67.8285H965.922C960.709 56.5804 950.576 52.166 939.209 52.166C935.222 52.166 922.92 52.6244 914.03 61.9031C908.029 68.1341 905.586 77.26 905.586 85.7661C905.586 97.1756 909.735 104.018 912.65 107.66C921.223 118.611 932.607 118.916 937.511 118.916C953.482 118.916 963.77 110.427 966.839 100.97H1004.31Z" fill="white"/>
<path d="M1020.89 32.2584H1135.27V56.2828H1059.73V73.9062H1129.59V98.0834H1059.73V115.265H1136.66V139.587H1020.93L1020.89 32.2584Z" fill="white"/>
<path d="M341.817 172.143H448.069V196.32H380.635V216.847H442.514V240.863H380.635V279.48H341.817V172.143Z" fill="white"/>
<path d="M469.252 172.143H583.64V196.167H508.096V213.799H577.956V237.977H508.096V255.159H585.02V279.48H469.286L469.252 172.143Z" fill="white"/>
<path d="M645.202 233.571C619.561 228.554 607.285 220.345 607.285 202.093C607.146 195.824 609.206 189.701 613.114 184.767C621.687 172.882 638.293 167.584 661.98 167.584C677.642 167.584 689.619 169.715 695.602 171.829C702.358 174.113 710.176 178.977 714.797 187.033C717.566 192.05 718.792 199.657 718.946 201.023H680.977C678.525 191.6 668.392 191.142 661.782 191.142C658.105 191.142 644.74 191.448 644.74 199.631C644.74 205.862 651.495 207.687 667.158 210.879L680.823 213.621C695.559 216.507 720.747 220.761 720.747 244.479C720.723 251.831 718.299 258.978 713.837 264.853C703.549 277.927 684.818 282.68 658.559 282.68C640.556 282.68 605.407 279.336 601.91 246.347H640.136C642.596 257.595 657.024 258.665 664.089 258.665C676.091 258.665 682.949 254.42 682.949 247.714C682.949 242.849 678.5 240.073 671.744 238.749L645.202 233.571Z" fill="white"/>
<path d="M764.348 196.167H727.039V172.143H840.501V196.167H803.346V279.48H764.348V196.167Z" fill="white"/>
<path d="M855.7 172.143H894.544V279.48H855.7V172.143Z" fill="white"/>
<path d="M908.98 172.143H949.667L976.072 236.915L1002.94 172.143H1043.63L994.186 279.48H958.111L908.98 172.143Z" fill="white"/>
<path d="M1081.4 172.143H1125.62L1172.6 279.48H1130.37L1124.54 262.001H1083.09L1077.25 279.48H1034.56L1081.4 172.143ZM1116.4 238.282L1103.66 201.949L1091.22 238.282H1116.4Z" fill="white"/>
<path d="M1189.18 172.143H1228.17V253.333H1283.6V279.48H1189.18V172.143Z" fill="white"/>
<path d="M806.551 17.9376V139.587H845.395V0L806.551 17.9376Z" fill="white"/>
<path d="M282.707 77.7608L261.472 5.09363L158.598 37.1742L141.358 70.4602L124.126 37.1402L21.2521 8.78641L0 77.7608L33.7085 116.429L2.7176 146.939L75.4412 178.273L47.3051 147.958L104.075 86.1566C104.075 86.1566 70.0146 98.1433 52.6374 103.05C53.1346 101.581 60.6187 90.2484 60.6187 90.2484L26.1644 77.9052L36.0746 58.7112L123.286 71.8015C123.286 71.8015 141.109 106.607 141.358 107.252C141.607 106.641 159.43 70.3158 159.43 70.3158L246.633 49.3986L256.543 74.1869L225.818 90.2484C225.818 90.2484 229.538 101.581 230.036 103.05C212.701 98.1433 178.598 86.1566 178.598 86.1566L235.368 147.958L207.309 178.273L279.99 146.973L249.007 116.463L282.707 77.7608Z" fill="white"/>
<path d="M141.358 258.359C97.7048 258.359 56.7265 267.994 25.8642 285.524L56.3064 286C56.3064 286 110.796 278.827 141.358 278.827C171.92 278.827 226.401 286 226.401 286L256.843 285.524C225.981 267.994 185.011 258.359 141.358 258.359Z" fill="white"/>
<path d="M183.579 176.693L160.432 187.509L208.192 148.059L181.916 109.196L141.358 123.738L100.422 109.57L74.5066 148.059L122.266 187.509L99.1193 176.693C99.1193 176.693 38.2006 210.913 25.3927 273.351C57.2323 256.644 98.1077 248.936 141.358 248.936C184.599 248.936 225.483 256.644 257.323 273.351C244.506 210.913 183.579 176.693 183.579 176.693ZM126.552 155.53C119.951 149.503 116.565 147.109 112.699 144.884C108.919 142.761 104.825 141.24 100.568 140.377C100.568 140.377 99.1622 128.101 113.385 130.979C127.607 133.857 128.816 149.664 126.552 155.53ZM169.331 130.979C183.553 128.101 182.139 140.377 182.139 140.377C177.882 141.241 173.789 142.763 170.008 144.884C166.142 147.109 162.764 149.503 156.155 155.53C153.891 149.664 155.109 133.866 169.331 130.979Z" fill="white"/>
</svg>
