<svg width="66" height="57" viewBox="0 0 66 57" fill="none" xmlns="http://www.w3.org/2000/svg">
<g clip-path="url(#clip0_1034_3939)">
<path d="M16.1755 0C16.8883 0 17.3159 0.425122 17.4585 1.13366C17.7436 2.97585 18.7414 3.8261 21.1648 3.9678C22.5903 4.10951 24.1583 3.9678 25.7264 4.10951C27.1518 4.25122 28.5773 4.25122 30.0028 4.67634C32.8538 5.38488 34.2793 7.65219 34.1368 10.7698H31.7134C31.7134 10.4863 31.7134 10.2029 31.7134 9.91951C31.5709 8.50244 30.573 7.22707 29.1475 6.94366C28.0071 6.80195 26.8667 6.66024 25.8689 6.66024C23.8732 6.51854 21.8775 6.51854 20.0244 6.23512C17.1734 5.95171 15.0351 3.68439 14.8926 0.850244C14.8926 0.425122 15.1777 0 15.7479 0H16.1755Z" fill="white"/>
<path d="M28.0073 10.7698C28.0073 12.0451 27.8648 13.3205 27.8648 14.5959C27.8648 17.8551 27.8648 21.2561 27.8648 24.5154C28.0073 26.641 28.8626 28.3415 30.8583 29.4751L31.0009 29.6168C31.8562 29.7586 31.8562 30.3254 31.8562 31.0339C31.8562 33.4429 31.8562 35.852 31.8562 38.261C31.8562 38.4027 31.8562 38.5444 31.8562 38.8278C31.8562 39.3947 32.2838 39.8198 32.7115 39.8198C33.2817 39.8198 33.5668 39.3947 33.5668 38.8278C33.5668 38.261 33.5668 37.6942 33.5668 37.1273C33.5668 34.86 33.5668 32.7344 33.5668 30.4671C33.5668 30.1837 33.5668 30.042 33.8519 29.9003C35.705 29.1917 36.8454 27.7747 37.273 25.9325C37.4156 25.2239 37.5581 24.3737 37.5581 23.5234C37.5581 20.1225 37.5581 16.8632 37.5581 13.4622C37.5581 12.612 37.4156 11.7617 37.273 10.7698C38.1283 11.0532 38.9836 11.3366 39.6964 11.7617C44.6856 14.1708 47.8217 18.1386 48.9621 23.5234C49.1047 24.5154 49.2472 25.5073 49.2472 26.641C49.2472 31.1756 49.2472 35.7103 49.2472 40.2449C49.2472 45.9132 46.9664 50.5895 42.2623 53.8488C39.6964 55.691 36.7028 56.5412 33.5668 56.683C30.003 56.8247 26.5818 56.2578 23.4457 54.2739C19.1692 51.5815 16.7459 47.7554 15.8906 42.7956C15.748 42.0871 15.748 41.3786 15.748 40.5283C15.748 35.4269 15.748 30.4671 15.748 25.3656C15.8906 21.3978 17.4586 17.9968 20.1671 15.1627C22.4479 13.1788 24.8712 11.7617 27.7222 10.9115C27.7222 10.9115 27.8648 10.9115 28.0073 10.7698C28.0073 10.7698 28.0073 10.9115 28.0073 10.7698Z" fill="white"/>
<path d="M35.2773 18.7053C35.2773 19.8389 34.9922 21.1143 34.2794 22.3897C33.4241 23.8067 31.9986 23.8067 31.1433 22.3897C29.7178 19.8389 29.7178 17.1465 31.1433 14.5958C31.9986 13.1787 33.2816 13.1787 34.2794 14.5958C34.9922 15.5877 35.2773 16.8631 35.2773 18.7053Z" fill="white"/>
</g>
<path d="M60.5538 28.3417L65.2773 33.0652L60.5538 37.7888" stroke="white" stroke-width="1.4" stroke-linecap="round" stroke-linejoin="round"/>
<path d="M5.44623 37.7885L0.722656 33.0649L5.44623 28.3413" stroke="white" stroke-width="1.4" stroke-linecap="round" stroke-linejoin="round"/>
<defs>
<clipPath id="clip0_1034_3939">
<rect width="34.6396" height="56.6829" fill="white" transform="translate(14.8926)"/>
</clipPath>
</defs>
</svg>
