<svg width="51" height="68" viewBox="0 0 51 68" fill="none" xmlns="http://www.w3.org/2000/svg">
<g clip-path="url(#clip0_2120_26092)">
<path d="M50.1473 36.9345C50.1424 33.8884 47.6005 31.4116 44.4821 31.4116C44.235 31.4116 43.9862 31.4278 43.7391 31.457C43.3141 31.5089 42.8957 31.6241 42.4542 31.7441C42.2467 31.8009 42.0407 31.8576 41.8332 31.9063L41.5564 31.9728L41.4493 31.7117C40.5301 29.4603 38.4067 28.0071 36.0428 28.0071C34.9852 28.0071 33.9506 28.286 32.9721 28.8343L32.7151 28.9786L32.5422 28.7434C31.2243 26.9544 29.6461 26.0834 27.7171 26.0834C26.9873 26.0834 26.195 26.2131 25.3647 26.4678L24.938 26.5992V25.9033C24.938 25.733 24.938 25.5741 24.938 25.4151C24.9347 24.7128 24.9397 24.0008 24.943 23.3114C24.9529 21.7754 24.9628 20.1875 24.882 18.6352C24.7371 15.8406 22.3501 13.6509 19.4458 13.6509C19.001 13.6509 18.5562 13.706 18.1213 13.8131C15.5383 14.4538 13.9305 16.5364 13.9272 19.25C13.9206 23.3974 13.9223 27.6145 13.9223 31.6938C13.9223 33.392 13.9239 38.4705 13.9239 38.4705L13.3391 37.7682C13.3391 37.7682 12.9981 37.3594 12.9355 37.2832C11.2635 35.246 9.17463 34.2128 6.72998 34.2128C6.1567 34.2128 5.55378 34.2695 4.93602 34.3798C3.67087 34.6085 2.61822 35.2654 1.50297 35.9629C1.38271 36.0391 1.26081 36.1137 1.1389 36.19C-0.126255 36.9734 -0.289342 37.58 0.412425 38.8987C1.27728 40.5223 2.14213 42.1443 3.00864 43.7679C5.70533 48.8187 8.49264 54.0415 11.1811 59.2075C14.1793 64.9672 18.7902 67.8316 25.2741 67.9679C26.419 67.9922 27.6397 68.0035 29.002 68.0035C30.6378 68.0035 32.2671 67.9873 34.0775 67.9679C35.1878 67.9549 36.2454 67.8754 37.219 67.7278C40.5532 67.225 43.7111 65.4927 46.113 62.8505C48.523 60.1986 49.9035 56.9189 49.999 53.6165C50.1654 47.9315 50.1555 42.0891 50.1473 36.9345ZM47.1014 40.9197C47.0833 44.999 47.0651 49.2161 46.9712 53.3635C46.9086 56.1355 45.7407 58.862 43.6798 61.042C41.6223 63.2203 38.9421 64.5698 36.135 64.8423C34.8847 64.9639 33.6113 64.9802 32.5306 64.9802C32.1798 64.9802 31.8272 64.9785 31.4763 64.9769C31.1271 64.9753 30.7762 64.9737 30.427 64.9737H30.3776C29.8488 64.9737 29.32 64.9802 28.7895 64.9867C28.2443 64.9931 27.6973 64.9996 27.1521 64.9996C26.2065 64.9996 24.9578 64.9834 23.6943 64.8488C19.426 64.3995 16.2236 62.2179 14.1743 58.3657C11.7066 53.7268 9.21252 49.002 6.80081 44.4345C5.80911 42.5546 4.81742 40.6764 3.82407 38.7981C3.79771 38.7494 3.773 38.6992 3.745 38.6375L3.57697 38.2937L3.79606 38.1331C4.6428 37.5151 5.64109 37.1875 6.68385 37.1875C8.23565 37.1875 9.68531 37.9352 10.5584 39.189C11.3425 40.3114 12.0772 41.4906 12.7873 42.6309C13.1085 43.1466 13.4297 43.6608 13.7559 44.1734C13.7971 44.2382 13.8383 44.3031 13.8778 44.3696C13.9766 44.5286 14.0705 44.6794 14.1743 44.8222C14.4857 45.2487 14.9206 45.4823 15.3966 45.4823C15.5185 45.4823 15.6421 45.4677 15.7656 45.4369C16.4246 45.2747 16.8035 44.8643 16.9287 44.1831C16.9616 43.9998 16.96 43.8003 16.9583 43.5878V43.4532C16.9583 39.7729 16.96 36.0943 16.96 32.414C16.96 28.0411 16.96 23.6682 16.9616 19.2938C16.9616 17.9297 17.6337 17.0165 18.8511 16.7197C19.0439 16.6726 19.2415 16.6499 19.4376 16.6499C20.6368 16.6499 21.6714 17.529 21.8443 18.6936C21.8921 19.018 21.8921 19.3392 21.8921 19.6474C21.8938 23.2222 21.8938 26.7954 21.8938 30.3703C21.8938 33.4926 21.8938 36.6165 21.8954 39.7389C21.8954 41.0754 22.5428 41.3981 23.0288 41.5263C23.1589 41.5603 23.2923 41.5782 23.4258 41.5782C24.1506 41.5782 24.7634 41.0738 24.8853 40.3779C24.9347 40.0957 24.9331 39.7989 24.9331 39.4858V39.3447C24.9347 38.4624 24.9331 37.58 24.9315 36.6993C24.9298 35.0984 24.9265 33.4439 24.9413 31.8155C24.9562 30.2227 26.0731 29.0662 27.5952 29.0662C27.7879 29.0662 27.984 29.0857 28.18 29.1246C29.4715 29.3793 30.31 30.4644 30.315 31.8901C30.3199 33.319 30.3199 34.748 30.3183 36.177C30.3183 37.3789 30.3183 38.5808 30.3199 39.7827C30.3199 40.0519 30.3265 40.3114 30.3907 40.5336C30.5654 41.1386 31.1749 41.5944 31.8091 41.5944C31.8618 41.5944 31.9145 41.5912 31.9656 41.5847C32.7959 41.4841 33.3395 40.8759 33.3494 40.0357C33.3658 38.777 33.3625 37.4957 33.3593 36.2548C33.3576 35.7147 33.3576 35.1762 33.3576 34.6361C33.3576 34.5388 33.3576 34.4415 33.356 34.3441C33.3543 34.0992 33.3527 33.8446 33.3609 33.5932C33.4087 32.1301 34.5486 31.0175 36.0098 31.0029H36.0378C37.5221 31.0029 38.6966 32.1528 38.7131 33.6224C38.7279 34.9832 38.7263 36.3668 38.7246 37.7049C38.723 38.4899 38.723 39.275 38.7246 40.06C38.7263 40.6666 38.9997 41.1208 39.5384 41.4079C39.774 41.5344 40.0129 41.5977 40.2451 41.5977C40.5219 41.5977 40.7986 41.5084 41.0688 41.3333C41.5334 41.0316 41.759 40.5985 41.7607 40.0065C41.7607 39.6902 41.7607 39.3739 41.759 39.0576C41.7574 38.4121 41.7557 37.7454 41.764 37.0902C41.7821 35.5736 42.9583 34.3863 44.4459 34.3863C45.1657 34.3863 45.8346 34.6588 46.3321 35.1519C46.8427 35.6579 47.1211 36.3489 47.1178 37.0983C47.1129 38.3683 47.108 39.6432 47.1014 40.9197Z" fill="white"/>
<path d="M2.57829 11.4804C3.0346 11.4804 3.49421 11.2793 3.8731 10.9159C8.24679 6.71501 13.9746 4.40206 20.0022 4.40206C23.5407 4.40206 26.9639 5.18872 30.1778 6.74258C32.0294 7.63792 33.774 8.80412 35.3719 10.2169L32.9421 10.2152C31.812 10.2152 30.4727 10.2169 29.0939 10.2266C28.7166 10.2298 28.3312 10.3337 28.0363 10.5121C27.4268 10.8819 27.1599 11.5988 27.3724 12.2946C27.5816 12.9807 28.1961 13.4284 28.9374 13.4365C29.4415 13.4414 29.9456 13.443 30.4496 13.443L32.1695 13.4414H39.141C40.3584 13.4414 41.0025 12.8056 41.0025 11.6053V8.59651C41.0025 6.31113 41.0025 4.02414 41.0058 1.73877C41.0075 0.861273 40.5347 0.420094 40.1393 0.202748C39.8889 0.0681233 39.6286 0 39.3651 0C39.0455 0 38.7341 0.0989409 38.4409 0.295201C37.9615 0.614731 37.7292 1.09646 37.7309 1.76472C37.7325 2.96174 37.7325 4.15714 37.7325 5.35416C37.7325 6.23003 37.7325 7.10753 37.7325 7.9834C37.4459 7.73037 37.1527 7.47572 36.8545 7.22918C33.3984 4.36313 29.4316 2.49623 25.0645 1.67875C23.3117 1.34949 21.5606 1.18405 19.8605 1.18405C15.3056 1.18405 10.8957 2.37296 6.7543 4.71835C4.91586 5.75966 3.17298 7.07347 1.5767 8.62246C0.837048 9.341 0.779391 10.3126 1.43833 10.9873C1.74803 11.3052 2.15327 11.4804 2.57829 11.4804Z" fill="white"/>
</g>
<defs>
<clipPath id="clip0_2120_26092">
<rect width="50.15" height="68" fill="white"/>
</clipPath>
</defs>
</svg>
