<svg width="49" height="68" viewBox="0 0 49 68" fill="none" xmlns="http://www.w3.org/2000/svg">
<g clip-path="url(#clip0_2120_26081)">
<path d="M28.6041 68C27.2886 68 26.1129 67.9887 25.0087 67.9645C18.7536 67.8303 14.3081 64.9746 11.4165 59.2358C8.82362 54.0901 6.13379 48.8861 3.53452 43.8519C2.69881 42.2358 1.86311 40.6181 1.03058 39.0003C0.353754 37.688 0.511045 37.082 1.73124 36.3014C1.84881 36.2271 1.96479 36.1511 2.08236 36.0751C3.15798 35.3818 4.17322 34.7257 5.39341 34.4978C5.98921 34.3863 6.57071 34.3313 7.12361 34.3313C9.48138 34.3313 11.4944 35.3608 13.1086 37.3907C13.169 37.4666 13.4978 37.8739 13.4978 37.8739L14.0619 38.5737C14.0619 38.5737 14.0619 33.5136 14.0603 31.8215C14.0587 27.757 14.0571 23.555 14.065 19.4226C14.0698 16.7188 15.6189 14.6437 18.1101 14.0054C18.528 13.8987 18.9585 13.8438 19.3875 13.8438C22.187 13.8438 24.4907 16.0255 24.6305 18.8101C24.7084 20.3567 24.6988 21.9389 24.6893 23.4694C24.6845 24.1562 24.6798 24.8657 24.6845 25.5655C24.6845 25.7239 24.6845 25.8822 24.6845 26.0519V26.7453L25.096 26.6144C25.8968 26.3606 26.661 26.2313 27.3648 26.2313C29.2253 26.2313 30.7474 27.0976 32.0184 28.8818L32.1852 29.1161L32.4331 28.9723C33.3784 28.426 34.3746 28.1481 35.3946 28.1481C37.6745 28.1481 39.7209 29.5977 40.609 31.8393L40.7123 32.0995L40.9792 32.0332C41.1794 31.9831 41.3796 31.9266 41.5782 31.8716C42.004 31.752 42.4075 31.6373 42.8175 31.5855C43.0558 31.5548 43.2973 31.5403 43.534 31.5403C46.5432 31.5403 48.9931 34.0097 48.9979 37.0432C49.0058 42.1792 49.0153 48.0005 48.8565 53.6602C48.7643 56.9506 47.4329 60.2184 45.1085 62.8608C42.792 65.4934 39.7463 67.2194 36.5306 67.7204C35.5916 67.8659 34.5716 67.9467 33.5008 67.9596C31.7547 67.9839 30.1818 68 28.6041 68ZM7.07912 37.2985C6.07341 37.2985 5.1106 37.625 4.29396 38.2407L4.08265 38.4007L4.24471 38.7434C4.27331 38.8048 4.29555 38.8533 4.32097 38.9034C5.27902 40.7748 6.23547 42.6479 7.19192 44.5194C9.51792 49.072 11.9218 53.7781 14.3034 58.4003C16.2798 62.2386 19.37 64.4122 23.485 64.8599C24.7036 64.9924 25.9079 65.0102 26.8199 65.0102C27.3458 65.0102 27.8733 65.0037 28.3992 64.9973C28.9107 64.9908 29.4207 64.9843 29.9307 64.9843H29.9784C30.3152 64.9843 30.6521 64.986 30.9905 64.9876C31.3289 64.9892 31.6689 64.9908 32.0073 64.9908C33.0496 64.9908 34.2777 64.9747 35.4836 64.8534C38.1909 64.5819 40.7759 63.2373 42.7603 61.0669C44.7463 58.8948 45.8743 56.1781 45.9347 53.4161C46.0252 49.2837 46.0427 45.0802 46.0602 41.0172C46.065 39.7454 46.0713 38.4751 46.0777 37.2032C46.0824 36.4582 45.8123 35.7681 45.3198 35.2638C44.84 34.7725 44.1949 34.5026 43.5006 34.501C42.066 34.501 40.93 35.684 40.9141 37.1951C40.9061 37.8496 40.9077 38.5139 40.9093 39.1555C40.9093 39.4706 40.9109 39.7858 40.9109 40.1009C40.9109 40.6908 40.6917 41.1223 40.2436 41.4229C39.9815 41.5974 39.7145 41.6863 39.4492 41.6863C39.2236 41.6863 38.9948 41.6233 38.7676 41.4972C38.2481 41.2112 37.9843 40.7587 37.9828 40.1542C37.9812 39.372 37.9828 38.5898 37.9828 37.8076C37.9843 36.4743 37.9875 35.0974 37.9716 33.7398C37.9557 32.2756 36.8229 31.1298 35.3914 31.1298H35.3644C33.9552 31.1443 32.8557 32.253 32.8096 33.7107C32.8017 33.9629 32.8033 34.215 32.8049 34.459C32.8049 34.556 32.8065 34.653 32.8065 34.7499C32.8065 35.2881 32.8081 35.8246 32.8081 36.3628C32.8112 37.5975 32.8144 38.8743 32.7985 40.13C32.789 40.9671 32.2647 41.5732 31.4639 41.6734C31.4147 41.6798 31.3638 41.6831 31.313 41.6831C30.7029 41.6831 30.115 41.229 29.945 40.6261C29.8831 40.4063 29.8783 40.1462 29.8767 39.8779C29.8736 38.6803 29.8751 37.4828 29.8751 36.2852C29.8751 34.8614 29.8751 33.4376 29.872 32.0138C29.8672 30.5932 29.0601 29.5121 27.8129 29.2583C27.6238 29.2195 27.4348 29.2001 27.2489 29.2001C25.7792 29.2001 24.7036 30.3524 24.6893 31.9395C24.675 33.5621 24.6766 35.2105 24.6798 36.8056C24.6814 37.6848 24.683 38.5624 24.6814 39.4415V39.5821C24.6814 39.8957 24.683 40.1898 24.6353 40.471C24.5177 41.1643 23.9267 41.6669 23.2276 41.6669C23.0989 41.6669 22.9718 41.6491 22.8447 41.6152C22.376 41.4891 21.7516 41.1659 21.7516 39.8342C21.75 36.7232 21.75 33.6106 21.75 30.4995C21.75 26.9376 21.75 23.3773 21.7485 19.8153C21.7485 19.5066 21.7485 19.1883 21.7024 18.865C21.5356 17.7047 20.5378 16.8287 19.3812 16.8287C19.1921 16.8287 19.0014 16.853 18.8155 16.8982C17.6414 17.194 16.9932 18.1038 16.9932 19.463C16.9916 23.8201 16.9916 28.1771 16.9916 32.5358C16.9916 36.2028 16.9916 39.8682 16.99 43.5352V43.6693C16.9916 43.8794 16.9932 44.0782 16.9614 44.2624C16.8423 44.9412 16.4752 45.3501 15.8397 45.5117C15.7206 45.5424 15.6014 45.5569 15.4838 45.5569C15.0231 45.5569 14.6052 45.3226 14.305 44.8992C14.2049 44.757 14.1143 44.6083 14.019 44.4483C13.9793 44.3836 13.9411 44.3174 13.9014 44.2527C13.5868 43.742 13.277 43.2297 12.9672 42.7158C12.2824 41.5797 11.5722 40.4047 10.8176 39.2864C9.9739 38.0452 8.57576 37.2985 7.07912 37.2985Z" fill="white"/>
<path d="M19.2984 9.89067C18.4659 9.89067 17.7891 9.20221 17.7891 8.35536V1.53532C17.7891 0.688469 18.4659 0 19.2984 0C20.1309 0 20.8078 0.688469 20.8078 1.53532V8.35536C20.8078 9.20221 20.1309 9.89067 19.2984 9.89067Z" fill="white"/>
<path d="M1.50935 21.3748C0.676826 21.3748 0 20.6863 0 19.8395C0 18.9927 0.676826 18.3042 1.50935 18.3042H8.21407C9.04659 18.3042 9.72342 18.9927 9.72342 19.8395C9.72342 20.6863 9.04659 21.3748 8.21407 21.3748H1.50935Z" fill="white"/>
<path d="M30.4976 21.3748C29.6651 21.3748 28.9883 20.6863 28.9883 19.8395C28.9883 18.9927 29.6651 18.3042 30.4976 18.3042H37.2023C38.0349 18.3042 38.7117 18.9927 38.7117 19.8395C38.7117 20.6863 38.0349 21.3748 37.2023 21.3748H30.4976Z" fill="white"/>
<path d="M27.5672 13.4734C27.1636 13.4734 26.7855 13.3134 26.4995 13.0241C25.9116 12.4261 25.9116 11.4516 26.4995 10.852L31.1944 6.04084C31.4788 5.75155 31.8569 5.59155 32.2605 5.59155C32.664 5.59155 33.0422 5.75155 33.3281 6.04084C33.916 6.6388 33.916 7.61332 33.3281 8.2129L28.6332 13.0241C28.3488 13.3134 27.9691 13.4734 27.5672 13.4734Z" fill="white"/>
<path d="M11.1442 13.4734C10.7407 13.4734 10.3625 13.3134 10.0766 13.0241L5.24028 8.20967C4.65402 7.61332 4.65402 6.64042 5.24187 6.04084C5.52626 5.75155 5.90599 5.59155 6.30954 5.59155C6.71309 5.59155 7.09122 5.75155 7.37721 6.04084L12.2151 10.8553C12.8013 11.4516 12.8013 12.4261 12.2119 13.0241C11.9275 13.3134 11.5478 13.4734 11.1442 13.4734Z" fill="white"/>
</g>
<defs>
<clipPath id="clip0_2120_26081">
<rect width="49" height="68" fill="white"/>
</clipPath>
</defs>
</svg>
