{
    "asset" : {
        "generator" : "Khronos glTF Blender I/O v1.6.16",
        "version" : "2.0"
    },
    "extensionsUsed" : [
        "KHR_materials_unlit"
    ],
    "scene" : 0,
    "scenes" : [
        {
            "name" : "Scene",
            "nodes" : [
                0,
                1
            ]
        }
    ],
    "nodes" : [
        {
            "mesh" : 0,
            "name" : "RightHand",
            "translation" : [
                0.18410548567771912,
                0.008128464221954346,
                -0.0006824897136539221
            ]
        },
        {
            "mesh" : 1,
            "name" : "LeftHand",
            "translation" : [
                -0.28974607586860657,
                0.008128461427986622,
                0.0004898183397017419
            ]
        }
    ],
    "materials" : [
        {
            "doubleSided" : true,
            "extensions" : {
                "KHR_materials_unlit" : {}
            },
            "name" : "Material #46",
            "pbrMetallicRoughness" : {
                "baseColorFactor" : [
                    0.06982672959566116,
                    1,
                    0,
                    1
                ],
                "metallicFactor" : 0,
                "roughnessFactor" : 0.9
            }
        }
    ],
    "meshes" : [
        {
            "name" : "Mesh",
            "primitives" : [
                {
                    "attributes" : {
                        "POSITION" : 0,
                        "NORMAL" : 1,
                        "TEXCOORD_0" : 2
                    },
                    "indices" : 3,
                    "material" : 0
                }
            ]
        },
        {
            "name" : "Mesh.001",
            "primitives" : [
                {
                    "attributes" : {
                        "POSITION" : 4,
                        "NORMAL" : 5,
                        "TEXCOORD_0" : 6
                    },
                    "indices" : 3,
                    "material" : 0
                }
            ]
        }
    ],
    "accessors" : [
        {
            "bufferView" : 0,
            "componentType" : 5126,
            "count" : 1580,
            "max" : [
                0.035399239510297775,
                0.09823468327522278,
                0.18165160715579987
            ],
            "min" : [
                -0.03299213573336601,
                -0.07088212668895721,
                -0.08817090839147568
            ],
            "type" : "VEC3"
        },
        {
            "bufferView" : 1,
            "componentType" : 5126,
            "count" : 1580,
            "type" : "VEC3"
        },
        {
            "bufferView" : 2,
            "componentType" : 5126,
            "count" : 1580,
            "type" : "VEC2"
        },
        {
            "bufferView" : 3,
            "componentType" : 5123,
            "count" : 2376,
            "type" : "SCALAR"
        },
        {
            "bufferView" : 4,
            "componentType" : 5126,
            "count" : 1580,
            "max" : [
                0.032992132008075714,
                0.09823436290025711,
                0.18165162205696106
            ],
            "min" : [
                -0.035399243235588074,
                -0.0708814486861229,
                -0.08817081898450851
            ],
            "type" : "VEC3"
        },
        {
            "bufferView" : 5,
            "componentType" : 5126,
            "count" : 1580,
            "type" : "VEC3"
        },
        {
            "bufferView" : 6,
            "componentType" : 5126,
            "count" : 1580,
            "type" : "VEC2"
        }
    ],
    "bufferViews" : [
        {
            "buffer" : 0,
            "byteLength" : 18960,
            "byteOffset" : 0
        },
        {
            "buffer" : 0,
            "byteLength" : 18960,
            "byteOffset" : 18960
        },
        {
            "buffer" : 0,
            "byteLength" : 12640,
            "byteOffset" : 37920
        },
        {
            "buffer" : 0,
            "byteLength" : 4752,
            "byteOffset" : 50560
        },
        {
            "buffer" : 0,
            "byteLength" : 18960,
            "byteOffset" : 55312
        },
        {
            "buffer" : 0,
            "byteLength" : 18960,
            "byteOffset" : 74272
        },
        {
            "buffer" : 0,
            "byteLength" : 12640,
            "byteOffset" : 93232
        }
    ],
    "buffers" : [
        {
            "byteLength" : 105872,
            "uri" : "data:application/octet-stream;base64,"
        }
    ]
}
