{
    "asset" : {
        "generator" : "Khronos glTF Blender I/O v1.6.16",
        "version" : "2.0"
    },
    "scene" : 0,
    "scenes" : [
        {
            "name" : "Scene",
            "nodes" : [
                0
            ]
        }
    ],
    "nodes" : [
        {
            "mesh" : 0,
            "name" : "muri",
            "translation" : [
                -0.000629127025604248,
                2.234618663787842,
                10.096168518066406
            ]
        }
    ],
    "meshes" : [
        {
            "name" : "Plane.001",
            "primitives" : [
                {
                    "attributes" : {
                        "POSITION" : 0,
                        "NORMAL" : 1,
                        "TEXCOORD_0" : 2
                    },
                    "indices" : 3
                }
            ]
        }
    ],
    "accessors" : [
        {
            "bufferView" : 0,
            "componentType" : 5126,
            "count" : 2073,
            "max" : [
                10.069067001342773,
                2.8335764408111572,
                11.313254356384277
            ],
            "min" : [
                -10.069067001342773,
                -6.292457103729248,
                -26.865642547607422
            ],
            "type" : "VEC3"
        },
        {
            "bufferView" : 1,
            "componentType" : 5126,
            "count" : 2073,
            "type" : "VEC3"
        },
        {
            "bufferView" : 2,
            "componentType" : 5126,
            "count" : 2073,
            "type" : "VEC2"
        },
        {
            "bufferView" : 3,
            "componentType" : 5123,
            "count" : 3624,
            "type" : "SCALAR"
        }
    ],
    "bufferViews" : [
        {
            "buffer" : 0,
            "byteLength" : 24876,
            "byteOffset" : 0
        },
        {
            "buffer" : 0,
            "byteLength" : 24876,
            "byteOffset" : 24876
        },
        {
            "buffer" : 0,
            "byteLength" : 16584,
            "byteOffset" : 49752
        },
        {
            "buffer" : 0,
            "byteLength" : 7248,
            "byteOffset" : 66336
        }
    ],
    "buffers" : [
        {
            "byteLength" : 73584,
            "uri" : "data:application/octet-stream;base64,"
        }
    ]
}
