{
    "asset" : {
        "generator" : "Khronos glTF Blender I/O v1.6.16",
        "version" : "2.0"
    },
    "scene" : 0,
    "scenes" : [
        {
            "name" : "Scene",
            "nodes" : [
                0,
                1
            ]
        }
    ],
    "nodes" : [
        {
            "mesh" : 0,
            "name" : "pavimento.003",
            "translation" : [
                -0.0006290674209594727,
                -2.6969525814056396,
                6.105480194091797
            ]
        },
        {
            "mesh" : 1,
            "name" : "Frame 1.004",
            "rotation" : [
                0.5,
                0.5,
                -0.5,
                0.4999999701976776
            ],
            "translation" : [
                7.681654453277588,
                2.2998785972595215,
                -0.5147335529327393
            ]
        }
    ],
    "meshes" : [
        {
            "name" : "Plane.023",
            "primitives" : [
                {
                    "attributes" : {
                        "POSITION" : 0,
                        "NORMAL" : 1,
                        "TEXCOORD_0" : 2
                    },
                    "indices" : 3
                }
            ]
        },
        {
            "name" : "Plane.015",
            "primitives" : [
                {
                    "attributes" : {
                        "POSITION" : 4,
                        "NORMAL" : 5,
                        "TEXCOORD_0" : 6
                    },
                    "indices" : 7
                }
            ]
        }
    ],
    "accessors" : [
        {
            "bufferView" : 0,
            "componentType" : 5126,
            "count" : 38,
            "max" : [
                9.869376182556152,
                2.714782476425171,
                15.061138153076172
            ],
            "min" : [
                -9.869376182556152,
                2.714782476425171,
                -22.85247039794922
            ],
            "type" : "VEC3"
        },
        {
            "bufferView" : 1,
            "componentType" : 5126,
            "count" : 38,
            "type" : "VEC3"
        },
        {
            "bufferView" : 2,
            "componentType" : 5126,
            "count" : 38,
            "type" : "VEC2"
        },
        {
            "bufferView" : 3,
            "componentType" : 5123,
            "count" : 108,
            "type" : "SCALAR"
        },
        {
            "bufferView" : 4,
            "componentType" : 5126,
            "count" : 13264,
            "max" : [
                4.581740856170654,
                1.8480067253112793,
                1.1198296546936035
            ],
            "min" : [
                -18.806217193603516,
                -17.21131706237793,
                -1.1198232173919678
            ],
            "type" : "VEC3"
        },
        {
            "bufferView" : 5,
            "componentType" : 5126,
            "count" : 13264,
            "type" : "VEC3"
        },
        {
            "bufferView" : 6,
            "componentType" : 5126,
            "count" : 13264,
            "type" : "VEC2"
        },
        {
            "bufferView" : 7,
            "componentType" : 5123,
            "count" : 33480,
            "type" : "SCALAR"
        }
    ],
    "bufferViews" : [
        {
            "buffer" : 0,
            "byteLength" : 456,
            "byteOffset" : 0
        },
        {
            "buffer" : 0,
            "byteLength" : 456,
            "byteOffset" : 456
        },
        {
            "buffer" : 0,
            "byteLength" : 304,
            "byteOffset" : 912
        },
        {
            "buffer" : 0,
            "byteLength" : 216,
            "byteOffset" : 1216
        },
        {
            "buffer" : 0,
            "byteLength" : 159168,
            "byteOffset" : 1432
        },
        {
            "buffer" : 0,
            "byteLength" : 159168,
            "byteOffset" : 160600
        },
        {
            "buffer" : 0,
            "byteLength" : 106112,
            "byteOffset" : 319768
        },
        {
            "buffer" : 0,
            "byteLength" : 66960,
            "byteOffset" : 425880
        }
    ],
    "buffers" : [
        {
            "byteLength" : 492840,
            "uri" : "data:application/octet-stream;base64,"
        }
    ]
}
